HIERARCHY
ROOT Hips
{
	OFFSET 0.000000 0.000000 0.000000
	CHANNELS 6 Xposition Yposition Zposition Zrotation Yrotation Xrotation 
	JOINT LHipJoint
	{
		OFFSET 0.000000 0.000000 0.000000
		CHANNELS 3 Zrotation Yrotation Xrotation
		JOINT LeftUpLeg
		{
			OFFSET 1.363060 -1.794630 0.839290
			CHANNELS 3 Zrotation Yrotation Xrotation
			JOINT LeftLeg
			{
				OFFSET 2.448110 -6.726130 0.000000
				CHANNELS 3 Zrotation Yrotation Xrotation
				JOINT LeftFoot
				{
					OFFSET 2.562200 -7.039590 0.000000
					CHANNELS 3 Zrotation Yrotation Xrotation
					JOINT LeftToeBase
					{
						OFFSET 0.157640 -0.433110 2.322550
						CHANNELS 3 Zrotation Yrotation Xrotation
						End Site
						{
							OFFSET 0.000000 0.000000 0.000000
						}
					}
				}
			}
		}
	}
	JOINT RHipJoint
	{
		OFFSET 0.000000 0.000000 0.000000
		CHANNELS 3 Zrotation Yrotation Xrotation
		JOINT RightUpLeg
		{
			OFFSET -1.305520 -1.794630 0.839290
			CHANNELS 3 Zrotation Yrotation Xrotation
			JOINT RightLeg
			{
				OFFSET -2.542530 -6.985550 0.000000
				CHANNELS 3 Zrotation Yrotation Xrotation
				JOINT RightFoot
				{
					OFFSET -2.568260 -7.056230 0.000000
					CHANNELS 3 Zrotation Yrotation Xrotation
					JOINT RightToeBase
					{
						OFFSET -0.164730 -0.452590 2.363150
						CHANNELS 3 Zrotation Yrotation Xrotation
						End Site
						{
							OFFSET 0.000000 0.000000 0.000000
						}
					}
				}
			}
		}
	}
	JOINT LowerBack
	{
		OFFSET 0.000000 0.000000 0.000000
		CHANNELS 3 Zrotation Yrotation Xrotation
		JOINT Spine
		{
			OFFSET 0.028270 2.035590 -0.193380
			CHANNELS 3 Zrotation Yrotation Xrotation
			JOINT Spine1
			{
				OFFSET 0.056720 2.048850 -0.042750
				CHANNELS 3 Zrotation Yrotation Xrotation
				JOINT Neck
				{
					OFFSET 0.000000 0.000000 0.000000
					CHANNELS 3 Zrotation Yrotation Xrotation
					JOINT Neck1
					{
						OFFSET -0.054170 1.746240 0.172020
						CHANNELS 3 Zrotation Yrotation Xrotation
						JOINT Head
						{
							OFFSET 0.104070 1.761360 -0.123970
							CHANNELS 3 Zrotation Yrotation Xrotation
							End Site
							{
								OFFSET 0.000000 0.000000 0.000000
							}
						}
					}
				}
				JOINT LeftShoulder
				{
					OFFSET 0.000000 0.000000 0.000000
					CHANNELS 3 Zrotation Yrotation Xrotation
					JOINT LeftArm
					{
						OFFSET 3.362410 1.200890 -0.311210
						CHANNELS 3 Zrotation Yrotation Xrotation
						JOINT LeftForeArm
						{
							OFFSET 4.983000 -0.000000 -0.000000
							CHANNELS 3 Zrotation Yrotation Xrotation
							JOINT LeftHand
							{
								OFFSET 3.483560 -0.000000 -0.000000
								CHANNELS 3 Zrotation Yrotation Xrotation
								JOINT LeftFingerBase
								{
									OFFSET 0.000000 0.000000 0.000000
									CHANNELS 3 Zrotation Yrotation Xrotation
									JOINT LeftHandIndex1
									{
										OFFSET 0.715260 -0.000000 -0.000000
										CHANNELS 3 Zrotation Yrotation Xrotation
										End Site
										{
											OFFSET 0.000000 0.000000 0.000000
										}
									}
								}
								JOINT LThumb
								{
									OFFSET 0.000000 0.000000 0.000000
									CHANNELS 3 Zrotation Yrotation Xrotation
									End Site
									{
										OFFSET 0.000000 0.000000 0.000000
									}
								}
							}
						}
					}
				}
				JOINT RightShoulder
				{
					OFFSET 0.000000 0.000000 0.000000
					CHANNELS 3 Zrotation Yrotation Xrotation
					JOINT RightArm
					{
						OFFSET -3.136600 1.374050 -0.404650
						CHANNELS 3 Zrotation Yrotation Xrotation
						JOINT RightForeArm
						{
							OFFSET -5.241900 -0.000000 -0.000000
							CHANNELS 3 Zrotation Yrotation Xrotation
							JOINT RightHand
							{
								OFFSET -3.444170 -0.000000 -0.000000
								CHANNELS 3 Zrotation Yrotation Xrotation
								JOINT RightFingerBase
								{
									OFFSET 0.000000 0.000000 0.000000
									CHANNELS 3 Zrotation Yrotation Xrotation
									JOINT RightHandIndex1
									{
										OFFSET -0.622530 -0.000000 -0.000000
										CHANNELS 3 Zrotation Yrotation Xrotation
										End Site
										{
											OFFSET 0.000000 0.000000 0.000000
										}
									}
								}
								JOINT RThumb
								{
									OFFSET 0.000000 0.000000 0.000000
									CHANNELS 3 Zrotation Yrotation Xrotation
									End Site
									{
										OFFSET 0.000000 0.000000 0.000000
									}
								}
							}
						}
					}
				}
			}
		}
	}
}
MOTION
Frames: 7
Frame Time: 0.008333
11.893897 16.320489 0.593184 7.769222 -87.665145 -20.361157 -10.719230 3.651286 -0.972417 3.175342 22.461757 -13.886234 -0.457731 3.111549 53.397897 3.019233 21.005081 -14.022781 -2.589800 0.000000 -19.370901 10.433320 -1.985269 -1.658072 4.018233 -15.802164 11.069650 0.610480 -1.301941 27.817087 -3.812865 -15.555626 -21.790444 3.775500 0.000000 -58.904900 -3.875112 -3.306429 -0.242581 -1.321348 -3.122426 -2.263513 -5.388615 -3.071677 2.289399 12.149746 -22.890846 -11.718021 -1.499098 -0.053795 -1.075715 0.000000 0.000000 0.000000 3.207201 22.020032 0.833071 -63.398003 14.903164 -13.572557 -4.241321 -28.254372 -0.031237 -5.796202 11.642902 -0.578737 -0.141495 -0.030270 -0.000000 0.000000 0.000000 0.000000 0.000000 0.000000 0.000000 15.851171 -18.457348 -0.911293 72.158673 -11.526040 -18.657762 2.699037 38.405787 0.007458 -1.653396 5.058312 -0.079122 0.110261 -0.132643 0.000000 0.000000 0.000000 0.000000 0.000000 0.000000 0.000000 
11.828643 16.328837 0.583505 8.197092 -87.599700 -20.373672 -10.690976 3.542759 -1.003235 2.240109 22.220332 -15.465043 -0.523256 3.154587 54.057262 2.963264 20.415224 -14.842363 -2.818500 0.000000 -17.759700 10.416988 -1.972773 -1.738544 3.977593 -15.967489 11.228587 0.637452 -1.252252 27.188753 -3.777393 -15.357441 -21.628599 3.686100 0.000000 -59.368600 -3.807272 -3.215735 -0.072289 -1.303809 -3.032044 -2.239916 -5.373117 -2.982429 2.291612 12.026404 -22.718580 -11.731441 -1.453277 -0.049477 -1.077742 0.000000 0.000000 0.000000 3.341241 21.867633 0.887827 -63.237686 15.283470 -12.753328 -4.245574 -28.271239 -0.032147 -5.570292 11.670274 -0.556740 -0.144684 -0.033521 -0.000000 0.000000 0.000000 0.000000 0.000000 0.000000 0.000000 15.414907 -18.256271 -0.865325 71.717524 -10.735033 -17.313406 2.674500 38.897812 0.007792 -1.409233 5.057134 -0.068015 0.107840 -0.133797 0.000000 0.000000 0.000000 0.000000 0.000000 0.000000 0.000000 
11.761210 16.336894 0.574800 8.721536 -87.536599 -20.463746 -10.652358 3.430445 -1.021060 1.241264 21.961248 -17.043452 -0.599962 3.180729 54.496696 2.903021 19.775362 -15.620271 -3.009900 -0.000001 -16.764100 10.402466 -1.961801 -1.807052 3.958139 -16.090652 11.378293 0.662986 -1.199960 26.550199 -3.755219 -15.215161 -21.501056 3.618500 0.000000 -59.733200 -3.753069 -3.111989 0.071277 -1.290108 -2.927836 -2.221317 -5.356358 -2.879613 2.292862 11.888031 -22.541568 -11.728231 -1.410383 -0.045759 -1.075281 0.000000 0.000000 0.000000 3.469711 21.726313 0.936713 -63.081890 15.694939 -11.967468 -4.246809 -28.375185 -0.033035 -5.380720 11.707962 -0.538943 -0.147514 -0.037051 -0.000000 0.000000 0.000000 0.000000 0.000000 0.000000 0.000000 14.976832 -18.039662 -0.822067 71.218289 -9.949339 -15.873897 2.652502 39.428011 0.008222 -1.075711 5.017678 -0.052309 0.104778 -0.134621 0.000000 0.000000 0.000000 0.000000 0.000000 0.000000 0.000000 
11.691396 16.344950 0.566783 9.422174 -87.488157 -20.715731 -10.599786 3.314936 -1.028796 0.189292 21.698554 -18.612183 -0.684683 3.190231 54.715187 2.843212 19.126337 -16.303713 -3.151600 -0.000001 -16.333401 10.393543 -1.951235 -1.862764 3.955657 -16.165452 11.527944 0.686187 -1.144224 25.890510 -3.745575 -15.125412 -21.403081 3.569701 -0.000000 -59.996600 -3.715648 -2.996055 0.189928 -1.280711 -2.810491 -2.206114 -5.337670 -2.763781 2.297566 11.741657 -22.373997 -11.713542 -1.368959 -0.042415 -1.069776 0.000000 0.000000 0.000000 3.593887 21.620709 0.978723 -62.930596 16.120988 -11.208588 -4.246646 -28.544243 -0.033918 -5.238159 11.756722 -0.526347 -0.149958 -0.040902 -0.000000 0.000000 0.000000 0.000000 0.000000 0.000000 0.000000 14.547214 -17.825392 -0.782581 70.638133 -9.141533 -14.296069 2.631719 39.959455 0.008692 -0.716224 4.963336 -0.035604 0.101582 -0.135131 0.000000 0.000000 0.000000 0.000000 0.000000 0.000000 0.000000 
11.618490 16.353748 0.559518 10.357441 -87.471810 -21.174880 -10.531474 3.196428 -1.024200 -0.911460 21.451307 -20.191421 -0.773490 3.182425 54.720810 2.788773 18.510291 -16.841121 -3.235600 0.000000 -16.415800 10.391120 -1.944009 -1.892527 3.986156 -16.160164 11.649476 0.706605 -1.084965 25.225541 -3.750571 -15.098083 -21.337499 3.542100 -0.000001 -60.123901 -3.688011 -2.866899 0.263813 -1.275172 -2.679682 -2.199172 -5.321581 -2.634835 2.302136 11.589128 -22.181604 -11.682446 -1.334742 -0.040080 -1.059706 0.000000 0.000000 0.000000 3.704124 21.543693 1.014443 -62.774643 16.589151 -10.481622 -4.246555 -28.777808 -0.034818 -5.154807 11.816563 -0.520352 -0.152018 -0.045158 -0.000000 0.000000 0.000000 0.000000 0.000000 0.000000 0.000000 14.140064 -17.573778 -0.746103 69.984857 -8.350318 -12.688271 2.612860 40.513868 0.009230 -0.300664 4.885608 -0.016700 0.097960 -0.135325 0.000000 0.000000 0.000000 0.000000 0.000000 0.000000 0.000000 
11.543061 16.363219 0.552789 11.596375 -87.490626 -21.927609 -10.444453 3.075369 -1.014308 -2.047126 21.222899 -21.756512 -0.863309 3.159392 54.519697 2.743592 17.962136 -17.210651 -3.265800 0.000000 -16.876100 10.399909 -1.937152 -1.905443 4.028071 -16.091195 11.769832 0.723368 -1.022581 24.539789 -3.764841 -15.112071 -21.284888 3.525500 0.000000 -60.148000 -3.675694 -2.727872 0.312321 -1.273787 -2.538246 -2.195070 -5.305253 -2.495273 2.312658 11.436843 -21.990913 -11.644935 -1.303626 -0.038172 -1.048010 0.000000 0.000000 0.000000 3.800114 21.524733 1.044168 -62.618038 17.058895 -9.791732 -4.248195 -29.035491 -0.035749 -5.130377 11.889579 -0.521059 -0.153708 -0.049724 -0.000000 0.000000 0.000000 0.000000 0.000000 0.000000 0.000000 13.758414 -17.318956 -0.713886 69.241665 -7.523435 -10.977441 2.593305 41.044956 0.009751 0.084156 4.820862 0.000405 0.094598 -0.135340 -0.000000 0.000000 0.000000 0.000000 0.000000 0.000000 0.000000 
11.464774 16.373838 0.546816 13.182197 -87.551062 -23.009555 -10.337830 2.952061 -0.997859 -3.212452 21.018250 -23.316938 -0.951523 3.121234 54.124157 2.711582 17.511637 -17.402838 -3.249400 0.000000 -17.566201 10.420625 -1.933324 -1.895162 4.085380 -15.948264 11.871498 0.736552 -0.957696 23.844376 -3.786669 -15.162712 -21.235788 3.516000 -0.000000 -60.078701 -3.671664 -2.580332 0.325511 -1.275524 -2.388126 -2.196866 -5.291396 -2.347226 2.325315 11.283255 -21.769433 -11.597413 -1.279829 -0.037143 -1.033618 0.000000 0.000000 0.000000 3.871389 21.553887 1.069941 -62.455151 17.546390 -9.153231 -4.253143 -29.304613 -0.036734 -5.167814 11.975905 -0.528867 -0.155077 -0.054565 -0.000000 0.000000 0.000000 0.000000 0.000000 0.000000 0.000000 13.406294 -17.025184 -0.685356 68.425790 -6.697587 -9.262318 2.572762 41.579019 0.010274 0.463657 4.762937 0.016707 0.091216 -0.135239 -0.000000 0.000000 0.000000 0.000000 0.000000 0.000000 0.000000 
